<svg width="72" height="72" viewBox="0 0 72 72" fill="none" xmlns="http://www.w3.org/2000/svg">
<g clip-path="url(#clip0_0_170)">
<path d="M0.0064698 35.966C0.0064698 24.0814 0.0043132 12.1968 0 0.312157C0 0.069548 0.0436712 0 0.302463 0C24.093 0.00808698 47.8857 0.00808698 71.6806 0C71.9604 0 72 0.0679306 72 0.32914C71.993 24.1097 71.993 47.8906 72 71.6717C72 71.9329 71.9588 72 71.6806 72C47.8981 71.9908 24.1165 71.9908 0.335621 72C0.041245 72 0 71.9248 0 71.6506C0.0075481 59.7569 0.0097047 47.862 0.0064698 35.966ZM38.8026 30.4992H38.8431V33.1639C38.8431 36.1852 38.8431 39.2065 38.8374 42.2278C38.8374 42.4922 38.9126 42.5642 39.1738 42.5585C39.9826 42.5424 40.7953 42.5456 41.6065 42.5585C41.8443 42.5585 41.9389 42.5036 41.9381 42.2448C41.9305 38.0794 41.9305 33.9138 41.9381 29.748C41.9381 29.5167 41.8693 29.4398 41.6364 29.4407C39.9812 29.4482 38.326 29.4482 36.6708 29.4407C36.48 29.4407 36.3991 29.4851 36.3862 29.6954C36.349 30.3262 36.2835 30.9562 36.2325 31.5861C36.0406 33.9653 35.8492 36.3445 35.6583 38.7237C35.5704 39.8171 35.4807 40.9101 35.389 42.003C35.2467 40.6856 35.1367 39.3698 35.0316 38.0533C34.9094 36.5265 34.7938 34.9988 34.6709 33.472C34.5698 32.2218 34.4557 30.9731 34.3619 29.7229C34.3441 29.4867 34.2511 29.435 34.0336 29.4366C32.3892 29.4447 30.7448 29.4447 29.1004 29.4366C28.8674 29.4366 28.7979 29.5078 28.7979 29.7399C28.8044 33.9165 28.8044 38.0948 28.7979 42.2747C28.7979 42.4938 28.8699 42.5618 29.085 42.5594C29.8743 42.5496 30.6628 42.5594 31.4513 42.5594C31.8921 42.5594 31.8913 42.5553 31.8913 42.1057V30.4184C32.0134 31.1211 32.0425 31.8093 32.0983 32.4943C32.2692 34.585 32.4369 36.6761 32.6013 38.7674C32.6943 39.9287 32.793 41.0908 32.8779 42.2529C32.8957 42.4914 32.9798 42.565 33.2257 42.5626C34.6579 42.5496 36.091 42.5529 37.524 42.5626C37.7359 42.5626 37.8475 42.523 37.8653 42.2812C37.9697 40.8748 38.0877 39.4701 38.2001 38.0654C38.4012 35.5428 38.6021 33.0208 38.8026 30.4992ZM31.9673 58.5756L31.8864 58.5602V58.2667C31.8864 54.2351 31.8878 50.2037 31.8905 46.1726C31.8905 45.8912 31.8314 45.7836 31.5265 45.7909C30.7275 45.8119 29.9277 45.8071 29.1279 45.7909C28.8666 45.7861 28.7906 45.8661 28.7914 46.1289C28.7984 50.2803 28.7984 54.434 28.7914 58.5902C28.7914 58.8805 28.8917 58.9347 29.1554 58.9322C30.755 58.9217 32.3539 58.9185 33.9527 58.9322C34.2503 58.9322 34.3724 58.8376 34.4671 58.5635C35.8651 54.5108 37.2706 50.4587 38.6838 46.4071C38.7153 46.3174 38.7153 46.1961 38.8406 46.1217V50.149C38.8406 52.9479 38.8455 55.7468 38.835 58.5449C38.835 58.8498 38.9159 58.9436 39.2264 58.9347C40.0141 58.9137 40.8034 58.9201 41.5919 58.9347C41.8418 58.9347 41.9389 58.8781 41.9381 58.6031C41.93 54.4383 41.93 50.2738 41.9381 46.1095C41.9381 45.8863 41.8823 45.7974 41.6421 45.7982C39.9761 45.8068 38.3101 45.8068 36.6441 45.7982C36.4565 45.7982 36.3765 45.8669 36.3158 46.0408C35.3243 48.9122 34.3282 51.7823 33.3276 54.651C32.8725 55.9606 32.4191 57.2688 31.9673 58.5756ZM35.3842 13.0718H34.4517C33.8144 13.0718 33.8144 13.0718 33.816 13.7034C33.816 14.2695 33.816 14.2695 33.2742 14.3455C33.1642 14.3617 33.0558 14.3819 32.9467 14.4037C31.1715 14.7571 29.8314 15.6669 29.1829 17.4153C28.6847 18.7586 28.6734 20.1333 29.0535 21.5057C29.2035 22.0769 29.4666 22.6122 29.827 23.08C30.1875 23.5478 30.638 23.9386 31.1521 24.2294C31.8284 24.6169 32.5782 24.8587 33.3535 24.9394C33.812 24.9936 33.8128 24.9888 33.8144 25.457C33.8144 25.6123 33.8249 25.7692 33.8144 25.9236C33.7982 26.1476 33.8953 26.2067 34.1104 26.2042C34.8213 26.1937 35.5322 26.2042 36.243 26.2042C36.9199 26.2042 36.9126 26.2042 36.924 25.5128C36.9337 24.9597 36.8107 25.0276 37.4246 24.9427C39.0849 24.717 40.4492 24.0054 41.2919 22.4947C41.8499 21.4944 41.9631 20.3921 41.9332 19.2705C41.8653 16.7465 40.3271 14.9035 37.8613 14.4183C37.5685 14.3601 37.1917 14.407 37.0016 14.2379C36.7824 14.0438 36.9377 13.6508 36.928 13.3484C36.9207 13.1203 36.8237 13.0694 36.6199 13.075C36.2066 13.0791 35.795 13.071 35.3842 13.0718Z" fill="white"/>
<path d="M36.9167 24.6183V23.567C36.9167 21.4248 36.9248 19.2809 36.9102 17.1395C36.9102 16.8023 37.0428 16.778 37.3073 16.8314C38.6191 17.095 39.2482 17.7735 39.4229 19.1208C39.4932 19.6613 39.4597 20.2102 39.3243 20.7382C39.1463 21.4401 38.7242 21.9415 38.0457 22.2084C37.9631 22.236 37.8885 22.2835 37.8286 22.3467C37.7687 22.4098 37.7252 22.4868 37.702 22.5707C37.4747 23.2605 37.2248 23.9455 36.9838 24.628L36.9167 24.6183Z" fill="white"/>
<path d="M33.812 14.711V15.3402C33.812 17.5943 33.812 19.8478 33.812 22.1009C33.812 22.5052 33.8007 22.5141 33.3939 22.4357C31.9382 22.1542 31.2378 21.2226 31.2807 19.5979C31.286 19.1978 31.3461 18.8003 31.4594 18.4164C31.6502 17.7945 32.0392 17.3417 32.6377 17.0999C32.886 17.0004 32.9952 16.8459 33.0728 16.6147C33.2847 15.9758 33.5136 15.3418 33.736 14.7053L33.812 14.711Z" fill="white"/>
</g>
<defs>
<clipPath id="clip0_0_170">
<rect width="72" height="72" fill="white"/>
</clipPath>
</defs>
</svg>
