<svg width="24" height="24" viewBox="0 0 24 24" fill="none" xmlns="http://www.w3.org/2000/svg">
<path fill-rule="evenodd" clip-rule="evenodd" d="M14 2H8C5.23858 2 3 4.23858 3 7V17C3 19.7614 5.23858 22 8 22H16C18.7614 22 21 19.7614 21 17V9C21 8.99923 21 8.99846 21 8.99769C21 8.9966 21 8.9955 21 8.9944C20.9998 8.68884 20.8625 8.4154 20.6464 8.23214L14.7072 2.29301L14.7071 2.29289C14.5196 2.10536 14.2652 2 14 2ZM13 3.9991L8 4C6.34315 4 5 5.34315 5 7V17C5 18.6569 6.34315 20 8 20H16C17.6569 20 19 18.6569 19 17L18.9991 9.9959L16.006 9.998C14.4001 10 13.094 8.75022 13.0048 7.17618L13 7V3.9991ZM17.5825 7.99749L15 5.415V7.00145C14.9993 7.51334 15.3847 7.93557 15.8818 7.99328L15.982 7.999L17.5825 7.99749Z" fill="#391484"/>
<g opacity="0.5">
<path fill-rule="evenodd" clip-rule="evenodd" d="M12.9933 10.8834C12.9355 10.386 12.5128 10 12 10C11.4477 10 11 10.4477 11 11V14.5853L9.70711 13.2929L9.6129 13.2097C9.22061 12.9047 8.65338 12.9324 8.29289 13.2929C7.90237 13.6834 7.90237 14.3166 8.29289 14.7071L11.2926 17.7068L11.2929 17.7071L11.3864 17.7897C11.3534 17.764 11.3221 17.7363 11.2926 17.7068M12.7076 17.7066L15.7071 14.7071L15.7903 14.6129C16.0953 14.2206 16.0676 13.6534 15.7071 13.2929L15.6129 13.2097C15.2206 12.9047 14.6534 12.9324 14.2929 13.2929L13 14.5853V11L12.9933 10.8834" fill="#391484"/>
</g>
</svg>
